<svg width="24" height="24" viewBox="0 0 24 24" fill="none" xmlns="http://www.w3.org/2000/svg">
<path opacity="0.2" d="M10.5 6.75H4.5V17.25H10.5V6.75Z" fill="#EFA425"/>
<path d="M9.75 3.75H5.25C4.83579 3.75 4.5 4.08579 4.5 4.5V19.5C4.5 19.9142 4.83579 20.25 5.25 20.25H9.75C10.1642 20.25 10.5 19.9142 10.5 19.5V4.5C10.5 4.08579 10.1642 3.75 9.75 3.75Z" stroke="#EFA425" stroke-width="2" stroke-linecap="round" stroke-linejoin="round"/>
<path d="M20.4066 19.2909L16.0182 20.2284C15.9214 20.249 15.8216 20.2503 15.7244 20.2321C15.6272 20.2139 15.5345 20.1767 15.4517 20.1226C15.3689 20.0685 15.2977 19.9986 15.242 19.9168C15.1864 19.8351 15.1475 19.7431 15.1275 19.6462L12.0169 4.85625C11.9751 4.66087 12.0122 4.45688 12.1202 4.28879C12.2282 4.1207 12.3984 4.00217 12.5935 3.95906L16.9819 3.02156C17.0786 3.00098 17.1785 2.99974 17.2757 3.01789C17.3729 3.03605 17.4656 3.07326 17.5483 3.12737C17.6311 3.18148 17.7024 3.25142 17.758 3.33318C17.8136 3.41494 17.8526 3.50689 17.8725 3.60375L20.9832 18.3937C21.025 18.5891 20.9879 18.7931 20.8798 18.9612C20.7718 19.1293 20.6017 19.2478 20.4066 19.2909Z" stroke="#4C1C95" stroke-width="2" stroke-linecap="round" stroke-linejoin="round"/>
<path d="M4.5 6.75H10.5" stroke="#EFA425" stroke-width="2" stroke-linecap="round" stroke-linejoin="round"/>
<path d="M4.5 17.25H10.5" stroke="#EFA425" stroke-width="2" stroke-linecap="round" stroke-linejoin="round"/>
<path d="M12.4838 7.07626L18.3385 5.81813" stroke="#4C1C95" stroke-width="2" stroke-linecap="round" stroke-linejoin="round"/>
<path d="M13.1053 10.035L18.9609 8.77687" stroke="#4C1C95" stroke-width="2" stroke-linecap="round" stroke-linejoin="round"/>
<path d="M14.6616 17.4319L20.5162 16.1738" stroke="#4C1C95" stroke-width="2" stroke-linecap="round" stroke-linejoin="round"/>
<path opacity="0.2" d="M13.1053 10.0312L18.961 8.77313L17.8725 3.59906C17.8526 3.50221 17.8136 3.41025 17.758 3.3285C17.7024 3.24674 17.6311 3.17679 17.5483 3.12268C17.4656 3.06857 17.3729 3.03137 17.2757 3.01321C17.1785 2.99505 17.0786 2.9963 16.9819 3.01687L12.5935 3.95437C12.3984 3.99748 12.2282 4.11602 12.1202 4.2841C12.0122 4.45219 11.9751 4.65619 12.0169 4.85156L13.1053 10.0312Z" fill="#4C1C95"/>
</svg>
