<svg width="24" height="24" viewBox="0 0 24 24" fill="none" xmlns="http://www.w3.org/2000/svg">
<path opacity="0.2" d="M20.25 8.25H3.75V4.5C3.75 4.30109 3.82902 4.11032 3.96967 3.96967C4.11032 3.82902 4.30109 3.75 4.5 3.75H19.5C19.6989 3.75 19.8897 3.82902 20.0303 3.96967C20.171 4.11032 20.25 4.30109 20.25 4.5V8.25Z" fill="#4C1C95"/>
<path d="M19.5 3.75H4.5C4.08579 3.75 3.75 4.08579 3.75 4.5V19.5C3.75 19.9142 4.08579 20.25 4.5 20.25H19.5C19.9142 20.25 20.25 19.9142 20.25 19.5V4.5C20.25 4.08579 19.9142 3.75 19.5 3.75Z" stroke="#4C1C95" stroke-width="2" stroke-linecap="round" stroke-linejoin="round"/>
<path d="M16.5 2.25V5.25" stroke="#4C1C95" stroke-width="2" stroke-linecap="round" stroke-linejoin="round"/>
<path d="M7.5 2.25V5.25" stroke="#4C1C95" stroke-width="2" stroke-linecap="round" stroke-linejoin="round"/>
<path d="M3.75 8.25H20.25" stroke="#4C1C95" stroke-width="2" stroke-linecap="round" stroke-linejoin="round"/>
<path d="M14.25 14.25H9.75" stroke="#EFA425" stroke-width="2" stroke-linecap="round" stroke-linejoin="round"/>
<path d="M12 12V16.5" stroke="#EFA425" stroke-width="2" stroke-linecap="round" stroke-linejoin="round"/>
</svg>
