<svg width="24" height="24" viewBox="0 0 24 24" fill="none" xmlns="http://www.w3.org/2000/svg">
<path d="M9.75 16.5C11.4069 16.5 12.75 15.1569 12.75 13.5C12.75 11.8431 11.4069 10.5 9.75 10.5C8.09315 10.5 6.75 11.8431 6.75 13.5C6.75 15.1569 8.09315 16.5 9.75 16.5Z" stroke="#4C1C95" stroke-width="2" stroke-linecap="round" stroke-linejoin="round"/>
<path opacity="0.2" d="M6.75 13.5C6.75 12.9067 6.92595 12.3266 7.25559 11.8333C7.58524 11.3399 8.05377 10.9554 8.60195 10.7284C9.15013 10.5013 9.75333 10.4419 10.3353 10.5576C10.9172 10.6734 11.4518 10.9591 11.8713 11.3787C12.2909 11.7982 12.5766 12.3328 12.6924 12.9147C12.8081 13.4967 12.7487 14.0999 12.5216 14.648C12.2946 15.1962 11.9101 15.6648 11.4167 15.9944C10.9234 16.3241 10.3433 16.5 9.75 16.5H18V7.5H6V13.5H6.75Z" fill="#EFA425"/>
<path d="M5.00531 19.5C5.4308 18.6017 6.10257 17.8426 6.9425 17.3111C7.78243 16.7795 8.756 16.4973 9.75 16.4973C10.744 16.4973 11.7176 16.7795 12.5575 17.3111C13.3974 17.8426 14.0692 18.6017 14.4947 19.5H20.25C20.4489 19.5 20.6397 19.421 20.7803 19.2803C20.921 19.1397 21 18.9489 21 18.75V5.25C21 5.05109 20.921 4.86032 20.7803 4.71967C20.6397 4.57902 20.4489 4.5 20.25 4.5H3.75C3.55109 4.5 3.36032 4.57902 3.21967 4.71967C3.07902 4.86032 3 5.05109 3 5.25V18.75C3 18.9489 3.07902 19.1397 3.21967 19.2803C3.36032 19.421 3.55109 19.5 3.75 19.5H5.00531Z" stroke="#4C1C95" stroke-width="2" stroke-linecap="round" stroke-linejoin="round"/>
<path d="M16.5 16.5H18V7.5H6V9" stroke="#EFA425" stroke-width="2" stroke-linecap="round" stroke-linejoin="round"/>
</svg>
