<svg width="24" height="24" viewBox="0 0 24 24" fill="none" xmlns="http://www.w3.org/2000/svg">
<path d="M9 12H4C3.73478 12 3.48043 11.8946 3.29289 11.7071C3.10536 11.5196 3 11.2652 3 11V6H10V11C10 11.2652 9.89464 11.5196 9.70711 11.7071C9.51957 11.8946 9.26522 12 9 12ZM21 20V15H14V20C14 20.2652 14.1054 20.5196 14.2929 20.7071C14.4804 20.8946 14.7348 21 15 21H20C20.2652 21 20.5196 20.8946 20.7071 20.7071C20.8946 20.5196 21 20.2652 21 20Z" fill="#EFA425" stroke="#EFA425" stroke-width="2"/>
<path d="M9 21H4C3.73478 21 3.48043 20.8946 3.29289 20.7071C3.10536 20.5196 3 20.2652 3 20V19H10V20C10 20.2652 9.89464 20.5196 9.70711 20.7071C9.51957 20.8946 9.26522 21 9 21ZM21 7V6H14V7C14 7.26522 14.1054 7.51957 14.2929 7.70711C14.4804 7.89464 14.7348 8 15 8H20C20.2652 8 20.5196 7.89464 20.7071 7.70711C20.8946 7.51957 21 7.26522 21 7Z" fill="#A78BFB"/>
<path d="M9 12H4C3.73478 12 3.48043 11.8946 3.29289 11.7071C3.10536 11.5196 3 11.2652 3 11V4C3 3.73478 3.10536 3.48043 3.29289 3.29289C3.48043 3.10536 3.73478 3 4 3H9C9.26522 3 9.51957 3.10536 9.70711 3.29289C9.89464 3.48043 10 3.73478 10 4V11C10 11.2652 9.89464 11.5196 9.70711 11.7071C9.51957 11.8946 9.26522 12 9 12ZM21 7V4C21 3.73478 20.8946 3.48043 20.7071 3.29289C20.5196 3.10536 20.2652 3 20 3H15C14.7348 3 14.4804 3.10536 14.2929 3.29289C14.1054 3.48043 14 3.73478 14 4V7C14 7.26522 14.1054 7.51957 14.2929 7.70711C14.4804 7.89464 14.7348 8 15 8H20C20.2652 8 20.5196 7.89464 20.7071 7.70711C20.8946 7.51957 21 7.26522 21 7ZM10 20V17C10 16.7348 9.89464 16.4804 9.70711 16.2929C9.51957 16.1054 9.26522 16 9 16H4C3.73478 16 3.48043 16.1054 3.29289 16.2929C3.10536 16.4804 3 16.7348 3 17V20C3 20.2652 3.10536 20.5196 3.29289 20.7071C3.48043 20.8946 3.73478 21 4 21H9C9.26522 21 9.51957 20.8946 9.70711 20.7071C9.89464 20.5196 10 20.2652 10 20ZM21 20V13C21 12.7348 20.8946 12.4804 20.7071 12.2929C20.5196 12.1054 20.2652 12 20 12H15C14.7348 12 14.4804 12.1054 14.2929 12.2929C14.1054 12.4804 14 12.7348 14 13V20C14 20.2652 14.1054 20.5196 14.2929 20.7071C14.4804 20.8946 14.7348 21 15 21H20C20.2652 21 20.5196 20.8946 20.7071 20.7071C20.8946 20.5196 21 20.2652 21 20Z" stroke="#4C1C95" stroke-width="2" stroke-linecap="round" stroke-linejoin="round"/>
</svg>
