<svg width="33" height="33" viewBox="0 0 33 33" fill="none" xmlns="http://www.w3.org/2000/svg">
<path d="M2.81158 13.3188C2.76538 13.4772 2.76208 13.6257 2.76208 13.7709C2.75878 14.8335 2.76208 15.8961 2.75548 16.9587C2.75548 17.2062 2.83138 17.3976 3.03598 17.556C3.54088 17.9487 3.62668 18.5526 3.24388 19.0641C3.06898 19.2984 3.04918 19.5096 3.17128 19.767C3.36268 20.1663 3.53428 20.5755 3.72238 20.9946C2.81488 20.9946 1.93708 20.9946 1.02628 20.9946C1.19458 20.6151 1.33978 20.2356 1.52458 19.8792C1.67638 19.5822 1.65988 19.3512 1.44208 19.0806C1.04278 18.5889 1.12528 17.9454 1.64008 17.5527C1.89748 17.3547 1.97998 17.1435 1.97668 16.8333C1.96348 15.246 1.96678 13.6587 1.97338 12.0747C1.97338 11.9163 1.93378 11.8503 1.76548 11.8635C1.63018 11.8767 1.48828 11.8305 1.49818 12.0615C1.50808 12.2991 1.47508 12.5367 1.45528 12.804C1.07578 12.573 0.683078 12.4047 0.376178 12.1077C-0.0264222 11.7216 -2.21506e-05 11.2596 0.442178 10.923C0.914078 10.56 1.43218 10.2762 1.98328 10.0518C6.10168 8.38201 10.2201 6.71221 14.3352 5.04571C14.8137 4.85101 15.3021 4.64971 15.8037 4.59031C16.3779 4.51771 16.9752 4.46161 17.5527 4.68601C22.044 6.43501 26.5386 8.17411 31.0332 9.91651C31.5282 10.1079 32.0034 10.3488 32.4324 10.6623C32.6568 10.824 32.868 11.0055 32.8944 11.319C32.9142 11.5632 32.8317 11.7546 32.6568 11.9163C32.5182 12.0417 32.3598 12.1341 32.2014 12.2265C30.5382 13.2 28.7694 13.9392 26.9874 14.6553C24.189 15.7806 21.3939 16.9125 18.5988 18.0444C17.1105 18.6483 15.6453 18.5328 14.1801 17.9322C10.6029 16.4637 7.01578 15.0117 3.43528 13.5564C3.23398 13.4673 3.02608 13.398 2.81158 13.3188ZM29.8782 11.4906C29.6703 11.3916 29.5284 11.3157 29.3799 11.2563C25.4925 9.71191 21.6051 8.17081 17.721 6.62311C16.8729 6.28651 16.0512 6.29971 15.213 6.65941C12.5334 7.81111 9.82738 8.89681 7.12798 10.0056C6.55378 10.2432 5.97958 10.4775 5.37568 10.725C5.64628 10.8834 5.89378 11.0088 6.14788 11.1111C9.70198 12.5763 13.2594 14.0382 16.8102 15.5166C17.9223 15.9786 19.0113 15.9786 20.1234 15.5199C22.4334 14.5596 24.7533 13.6224 27.0666 12.6687C27.9873 12.2925 28.9014 11.8998 29.8782 11.4906ZM9.08158 14.6355C9.28288 14.6355 9.53038 14.5728 9.73828 14.3913C9.97918 14.1834 9.98578 13.8864 9.75808 13.6686C9.39508 13.3188 8.58658 13.3254 8.23348 13.6884C8.02228 13.9029 8.01898 14.1471 8.23348 14.3583C8.44468 14.5662 8.71528 14.6388 9.08158 14.6355Z" fill="#FACC15"/>
<path d="M29.5086 15.3054C29.4393 15.3285 29.4063 15.3417 29.37 15.3549C25.4925 16.764 21.615 18.1764 17.7375 19.5888C17.2095 19.7802 16.9884 20.1069 16.9884 20.6745C16.9884 22.836 16.9851 24.9975 16.995 27.159C16.995 27.2052 16.995 27.2547 16.995 27.3009C16.995 27.5352 16.9422 27.5418 16.7442 27.4725C16.7112 27.4626 16.6782 27.4494 16.6452 27.4395C13.5993 26.3769 10.5534 25.3176 7.50417 24.2649C7.33587 24.2055 7.26987 24.1395 7.26987 23.9481C7.27977 21.6909 7.27317 19.437 7.27977 17.1831C7.27977 17.0214 7.24347 16.9356 7.08177 16.8828C6.85737 16.8102 6.63957 16.7046 6.41847 16.6188C6.06537 16.4769 5.71227 16.335 5.34267 16.1898C5.33607 16.2558 5.32947 16.2954 5.32947 16.3317C5.32947 19.173 5.32617 22.0143 5.32947 24.8523C5.32947 25.3143 5.58027 25.6509 6.02247 25.8093C6.39867 25.9446 6.77487 26.0733 7.15107 26.202C10.3158 27.3009 13.4805 28.3998 16.6452 29.4987C16.7508 29.535 16.8564 29.5713 16.9587 29.6076C17.6121 29.37 18.2688 29.1324 18.9222 28.8948C18.9255 28.8618 18.9255 28.8288 18.9255 28.7958C18.9255 28.3668 18.9255 27.9411 18.9255 27.5121C18.9255 25.4925 18.9255 23.4729 18.9222 21.4533C18.9222 21.2751 18.9783 21.2025 19.14 21.1431C20.1234 20.7933 21.1035 20.4336 22.0836 20.0772C24.4992 19.1994 26.9115 18.3183 29.3271 17.4372C29.4162 17.4042 29.5086 17.3943 29.5086 17.2458C29.502 16.6122 29.5086 15.972 29.5086 15.3054ZM17.7573 28.9707C17.4801 28.9707 17.2524 28.7463 17.2524 28.4658C17.2524 28.1886 17.4768 27.9609 17.7573 27.9609C18.0345 27.9609 18.2622 28.1853 18.2622 28.4658C18.2622 28.7463 18.0378 28.9707 17.7573 28.9707Z" fill="white"/>
<path d="M20.4138 25.7136C20.6217 25.6377 20.8263 25.5651 21.0342 25.4892V28.2678C20.8461 28.3371 20.6547 28.4064 20.4666 28.4757C20.3049 28.5351 20.2422 28.5054 20.2422 28.3206C20.2488 27.5253 20.2488 26.73 20.2422 25.9347C20.2422 25.8027 20.3016 25.7565 20.4138 25.7136Z" fill="white"/>
<path d="M21.7041 25.245V28.0269C21.6579 28.0434 21.6084 28.0599 21.5622 28.0797C21.4566 28.1193 21.351 28.1556 21.2454 28.1952V25.4133C21.4005 25.3572 21.5523 25.3011 21.7041 25.245Z" fill="white"/>
<path d="M28.2018 22.8855V25.6674C26.1063 26.4264 24.0108 27.1887 21.9153 27.951V25.1691C23.3805 24.6378 24.8457 24.1032 26.3109 23.5719C26.9445 23.3442 27.5748 23.1165 28.2018 22.8855Z" fill="white"/>
<path d="M29.4921 22.6941C29.4756 23.0736 29.4888 23.4531 29.4888 23.8359C29.4888 24.2253 29.4822 24.6147 29.4921 25.0041C29.4954 25.1526 29.4426 25.2219 29.304 25.2714C29.0433 25.3671 28.7793 25.4595 28.5186 25.5552V22.77C28.7529 22.6842 28.9872 22.5984 29.2215 22.5093C29.4327 22.4334 29.502 22.4565 29.4921 22.6941Z" fill="white"/>
<path d="M20.4897 21.8328C20.3016 21.8988 20.2323 21.9945 20.2422 22.1991C20.2587 22.5687 20.2455 22.9383 20.2455 23.3112V24.4002C20.2488 24.7005 20.2488 24.7038 20.5227 24.6048C20.6316 24.5652 20.7339 24.5289 20.8428 24.4893V21.7074C20.724 21.7503 20.6085 21.7899 20.4897 21.8328Z" fill="white"/>
<path d="M28.0632 19.0938V21.8691C28.1589 21.8328 28.2579 21.7998 28.3536 21.7635V18.9849C28.2546 19.0212 28.1589 19.0575 28.0632 19.0938ZM21.1266 21.6051V24.387C22.1199 24.024 23.1132 23.6643 24.1065 23.3046C25.3539 22.8525 26.6013 22.4004 27.8487 21.9483V19.173C26.4594 19.6812 25.0668 20.1828 23.6775 20.6844C22.8294 20.9913 21.9813 21.3015 21.1266 21.6051ZM25.4397 20.9484C25.4364 21.2289 25.4331 21.5094 25.4397 21.7899C25.443 21.8691 25.4133 21.9021 25.344 21.9252C24.7038 22.1562 24.0636 22.3872 23.4234 22.6215C22.9779 22.7832 22.5291 22.9449 22.0803 23.1066C21.978 23.1429 21.978 23.1429 21.978 23.0307V22.6248C21.978 22.4862 21.9846 22.3476 21.9747 22.209C21.9714 22.1331 21.9978 22.0968 22.0671 22.0737C22.4664 21.9318 22.8657 21.7866 23.2617 21.6414C23.958 21.3906 24.6543 21.1398 25.3473 20.8824C25.4364 20.8494 25.4397 20.8758 25.4397 20.9484ZM29.4921 18.8331C29.4954 18.6417 29.4855 18.5691 29.2545 18.6549C29.0235 18.7407 28.7958 18.8265 28.5648 18.909V21.6876C28.7892 21.6051 29.0169 21.5259 29.2413 21.4434C29.4261 21.3774 29.4987 21.2916 29.4954 21.087C29.4789 20.3346 29.4822 19.5855 29.4921 18.8331Z" fill="white"/>
<path d="M17.7573 28.9707C18.0361 28.9707 18.2622 28.7447 18.2622 28.4658C18.2622 28.187 18.0361 27.9609 17.7573 27.9609C17.4784 27.9609 17.2524 28.187 17.2524 28.4658C17.2524 28.7447 17.4784 28.9707 17.7573 28.9707Z" fill="white"/>
</svg>
